<?xml version="1.0" encoding="UTF-8" standalone="no"?><!-- Generator: Gravit.io --><svg xmlns="http://www.w3.org/2000/svg" xmlns:xlink="http://www.w3.org/1999/xlink" style="isolation:isolate" viewBox="648.933 331.789 113.225 113.225" width="113.225pt" height="113.225pt"><defs><clipPath id="_clipPath_6W2WAcOsXWCrVKEu29szMPcsaOu3LJ0o"><rect x="648.933" y="331.789" width="113.225" height="113.225"/></clipPath></defs><g clip-path="url(#_clipPath_6W2WAcOsXWCrVKEu29szMPcsaOu3LJ0o)"><mask id="_mask_nlriGqz5eU1pUmnG0G5mJoxkr6gxFa6y"><circle vector-effect="non-scaling-stroke" cx="705.5456837775732" cy="388.4010883536621" r="56.612501107909225" fill="white" stroke="none"/></mask><circle vector-effect="non-scaling-stroke" cx="705.5456837775732" cy="388.4010883536621" r="56.612501107909225" fill="rgb(126,221,71)"/><circle vector-effect="non-scaling-stroke" cx="705.5456837775732" cy="388.4010883536621" r="56.612501107909225" fill="rgb(126,221,71)" mask="url(#_mask_nlriGqz5eU1pUmnG0G5mJoxkr6gxFa6y)" stroke-width="20" stroke="rgb(93,70,100)" stroke-linejoin="miter" stroke-linecap="square" stroke-miterlimit="3"/><g><path d=" M 699.791 362.528 L 704.431 368.2 L 707.373 368.528 L 704.431 376.95 L 698.951 376.509 L 700.451 371.009 L 696.642 370.829 L 699.451 361.39 L 699.791 362.528 Z " fill="rgb(196,147,156)"/><path d=" M 706.232 368.7 L 703.701 376.891 L 713.611 376.621 L 715.341 368.7 L 706.232 368.7 Z " fill="rgb(151,224,187)"/><path d=" M 722.701 360.7 L 726.849 361.7 L 734.701 375.84 L 727.361 412.7 L 725.67 412.622 L 714.951 398.45 L 722.701 360.7 Z " fill="rgb(196,147,156)"/><path d=" M 674.08 400.731 L 687.701 400.731 L 693.771 382.7 L 697.17 382.7 L 694.873 392.321 L 702.541 392.321 L 704.431 384.7 L 709.213 384.7 L 706.01 400.731 L 718.01 400.731 L 727.642 412.688 L 713.932 413.188 L 708.67 406.418 L 706.732 404.918 L 702.002 405.028 L 699.431 412.7 L 686.371 412.7 L 673.213 400.731 L 674.08 400.731 Z " fill="rgb(205,161,167)"/><path d=" M 694.822 393.2 L 705.112 404.688 L 702.002 405.028 L 698.529 412.622 L 687.701 400.732 L 693.771 382.7 L 697.17 382.7 L 694.822 393.2 Z " fill="rgb(196,147,156)"/><path d=" M 685.701 361.2 L 672.741 400.731 L 687.701 400.731 L 693.771 382.7 L 696.701 382.7 L 697.213 384.7 L 694.873 392.321 L 700.51 393.2 L 703.123 392.321 L 705.041 384.7 L 708.623 384.7 L 709.303 385.7 L 706.01 400.731 L 718.28 400.731 L 726.85 360.801 L 712.76 360.801 L 710.951 368.7 L 715.341 368.7 L 713.341 376.7 L 698.951 376.509 L 700.451 371.009 L 696.642 370.829 L 699.451 361.39 L 697.451 360.449 L 685.701 361.2 Z " fill="rgb(114,202,175)"/><path d=" M 677.681 385.63 L 673.213 400.509 L 687.771 400.509 L 689.651 394.539 L 682.463 394.539 L 684.252 386.419 L 681.432 385.231 L 677.681 385.63 Z " fill="rgb(93,188,157)"/><path d=" M 735.251 374.61 L 728.151 361.29 C 727.631 360.31 726.611 359.698 725.501 359.7 L 714.401 359.7 C 713.045 359.7 711.853 360.61 711.501 361.919 L 710.131 366.919 C 710.01 367.369 709.596 367.676 709.131 367.661 L 705.701 367.661 C 705.385 367.657 705.089 367.505 704.901 367.251 L 700.189 360.919 C 699.622 360.153 698.725 359.7 697.771 359.7 L 687.151 359.7 C 685.854 359.701 684.704 360.536 684.303 361.77 L 672.143 399.17 C 671.78 400.285 672.1 401.509 672.963 402.303 L 684.439 412.9 C 684.984 413.403 685.697 413.685 686.439 413.69 L 698.072 413.69 C 699.436 413.691 700.628 412.771 700.971 411.451 L 702.271 406.451 C 702.387 405.998 702.803 405.686 703.271 405.701 L 705.881 405.701 C 706.174 405.705 706.451 405.834 706.642 406.061 L 712.189 412.642 C 712.756 413.31 713.587 413.696 714.463 413.7 L 726.041 413.7 C 727.483 413.701 728.722 412.676 728.991 411.259 L 735.553 376.579 C 735.678 375.908 735.572 375.213 735.252 374.61 L 735.251 374.61 Z  M 713.431 362.438 C 713.552 361.99 713.967 361.684 714.431 361.7 L 725.701 361.7 L 722.701 375.7 L 714.982 375.7 L 716.362 370.188 C 716.514 369.59 716.379 368.955 715.998 368.47 C 715.618 367.984 715.036 367.7 714.42 367.7 L 711.99 367.7 C 711.99 367.63 712.053 367.56 712.072 367.481 L 713.431 362.438 Z  M 705.001 369.622 L 704.08 372.38 C 703.908 372.903 704.193 373.47 704.717 373.645 C 705.24 373.817 705.807 373.535 705.982 373.009 L 707.092 369.7 L 709.17 369.7 C 709.299 369.708 709.424 369.708 709.553 369.7 C 709.602 369.704 709.652 369.704 709.701 369.7 L 714.42 369.7 L 712.92 375.7 L 700.091 375.7 L 701.211 372.329 C 701.411 371.719 701.308 371.05 700.934 370.529 C 700.557 370.009 699.953 369.701 699.311 369.7 L 698.041 369.7 L 699.823 363.778 L 703.303 368.481 C 703.722 369.049 704.326 369.452 705.011 369.621 L 705.001 369.622 Z  M 686.201 362.392 C 686.341 361.962 686.751 361.677 687.201 361.7 L 697.771 361.7 C 697.959 361.704 698.142 361.759 698.303 361.86 L 695.963 369.7 L 683.83 369.7 L 686.201 362.392 Z  M 688.963 393.751 C 688.878 393.722 688.79 393.705 688.701 393.7 L 683.091 393.7 L 683.76 391.7 L 689.65 391.7 L 688.963 393.751 Z  M 681.189 393.059 C 680.984 393.671 681.086 394.344 681.463 394.868 C 681.84 395.391 682.447 395.701 683.092 395.7 L 688.322 395.7 L 686.99 399.7 L 674.081 399.7 L 678.304 386.7 L 683.304 386.7 L 681.189 393.059 Z  M 733.592 376.2 L 728.001 405.759 C 727.905 405.724 727.803 405.704 727.701 405.7 C 727.151 405.7 726.701 406.15 726.701 406.7 L 726.701 408.7 C 726.705 409.081 726.927 409.427 727.271 409.59 L 727.029 410.88 C 726.939 411.358 726.515 411.7 726.029 411.688 L 714.463 411.688 C 714.168 411.688 713.888 411.556 713.701 411.328 L 712.161 409.501 C 712.318 409.619 712.505 409.688 712.701 409.7 C 713.251 409.7 713.701 409.25 713.701 408.7 L 713.701 406.7 C 713.701 406.15 713.251 405.7 712.701 405.7 C 712.151 405.7 711.701 406.15 711.701 406.7 L 711.701 408.7 C 711.701 408.825 711.724 408.946 711.771 409.06 L 708.142 404.759 C 707.57 404.087 706.732 403.699 705.849 403.7 L 703.252 403.7 C 701.889 403.701 700.697 404.62 700.349 405.938 L 699.053 410.938 C 698.936 411.391 698.521 411.702 698.053 411.688 L 686.483 411.688 C 686.23 411.689 685.986 411.593 685.803 411.418 L 682.701 408.572 L 682.701 406.7 C 682.701 406.15 682.251 405.7 681.701 405.7 C 681.151 405.7 680.701 406.15 680.701 406.7 L 675.26 401.7 L 686.981 401.7 C 687.841 401.7 688.611 401.15 688.88 400.329 L 694.42 383.7 L 696.361 383.7 L 694.131 391.13 C 693.951 391.734 694.067 392.387 694.443 392.893 C 694.819 393.399 695.411 393.698 696.041 393.7 L 701.92 393.7 C 702.837 393.701 703.637 393.077 703.861 392.188 L 705.482 385.7 L 708.42 385.7 L 705.04 399.22 C 704.892 399.816 705.028 400.447 705.408 400.93 C 705.787 401.415 706.365 401.7 706.982 401.7 L 717.482 401.7 C 718.439 401.72 719.279 401.06 719.482 400.122 L 721.112 392.579 C 721.168 392.314 721.116 392.038 720.968 391.811 C 720.819 391.585 720.587 391.427 720.322 391.372 C 720.057 391.316 719.78 391.367 719.553 391.515 C 719.326 391.663 719.167 391.896 719.112 392.161 L 717.481 399.7 L 706.981 399.7 L 710.361 386.169 C 710.505 385.574 710.368 384.946 709.989 384.466 C 709.612 383.983 709.034 383.701 708.421 383.7 L 705.421 383.7 C 704.508 383.704 703.714 384.327 703.491 385.212 L 701.921 391.7 L 696.041 391.7 L 698.272 384.27 C 698.452 383.666 698.336 383.012 697.96 382.507 C 697.584 382.001 696.991 381.702 696.361 381.7 L 694.421 381.7 C 693.561 381.7 692.791 382.25 692.522 383.071 L 690.311 389.7 L 684.42 389.7 L 685.213 387.329 C 685.412 386.719 685.309 386.05 684.935 385.529 C 684.557 385.009 683.954 384.701 683.311 384.7 L 678.951 384.7 L 683.17 371.7 L 699.31 371.7 L 698.19 375.071 C 697.99 375.681 698.093 376.35 698.467 376.871 C 698.846 377.391 699.447 377.7 700.092 377.7 L 722.232 377.7 L 721.381 381.63 C 721.325 381.89 721.375 382.162 721.519 382.385 C 721.664 382.609 721.891 382.765 722.151 382.821 L 722.361 382.821 C 722.841 382.829 723.26 382.501 723.361 382.028 L 727.261 363.872 L 733.491 375.552 C 733.601 375.751 733.636 375.985 733.593 376.212 L 733.592 376.2 Z " fill="rgb(141,108,159)"/><path d=" M 722.501 385.91 C 722.615 385.359 722.263 384.818 721.713 384.7 C 721.448 384.644 721.171 384.695 720.943 384.843 C 720.716 384.992 720.557 385.224 720.502 385.49 L 720.002 387.81 C 719.944 388.069 719.993 388.341 720.138 388.563 C 720.281 388.789 720.509 388.947 720.771 389.001 L 720.982 389.001 C 721.459 389.012 721.881 388.681 721.982 388.211 L 722.501 385.91 Z  M 686.701 405.7 C 686.151 405.7 685.701 406.15 685.701 406.7 L 685.701 408.7 C 685.701 409.25 686.151 409.7 686.701 409.7 C 687.251 409.7 687.701 409.25 687.701 408.7 L 687.701 406.7 C 687.701 406.15 687.251 405.7 686.701 405.7 Z  M 691.701 405.7 C 691.151 405.7 690.701 406.15 690.701 406.7 L 690.701 408.7 C 690.701 409.25 691.151 409.7 691.701 409.7 C 692.251 409.7 692.701 409.25 692.701 408.7 L 692.701 406.7 C 692.701 406.15 692.251 405.7 691.701 405.7 Z  M 696.701 405.7 C 696.151 405.7 695.701 406.15 695.701 406.7 L 695.701 408.7 C 695.701 409.25 696.151 409.7 696.701 409.7 C 697.251 409.7 697.701 409.25 697.701 408.7 L 697.701 406.7 C 697.701 406.15 697.251 405.7 696.701 405.7 Z  M 717.701 405.7 C 717.151 405.7 716.701 406.15 716.701 406.7 L 716.701 408.7 C 716.701 409.25 717.151 409.7 717.701 409.7 C 718.251 409.7 718.701 409.25 718.701 408.7 L 718.701 406.7 C 718.701 406.15 718.251 405.7 717.701 405.7 Z  M 722.701 405.7 C 722.151 405.7 721.701 406.15 721.701 406.7 L 721.701 408.7 C 721.701 409.25 722.151 409.7 722.701 409.7 C 723.251 409.7 723.701 409.25 723.701 408.7 L 723.701 406.7 C 723.701 406.15 723.251 405.7 722.701 405.7 Z " fill="rgb(141,108,159)"/></g></g></svg>